<svg width="28" height="31" viewBox="0 0 28 31" fill="none" xmlns="http://www.w3.org/2000/svg">
<mask id="mask0_69_255" style="mask-type:luminance" maskUnits="userSpaceOnUse" x="2" y="0" width="24" height="29">
<path d="M2.12671 0H25.8489V28.8522H2.12671V0Z" fill="white"/>
</mask>
<g mask="url(#mask0_69_255)">
<path d="M16.9668 5.88043V4.8049C16.9744 3.55013 15.5495 3.07617 14.5211 2.93186V0.536241C14.5211 0.464844 14.5074 0.396484 14.4816 0.331163C14.4542 0.265842 14.4147 0.208116 14.3646 0.157986C14.3145 0.107856 14.2567 0.0683596 14.1914 0.0410156C14.1246 0.0136721 14.0562 0 13.9863 0C13.9149 0 13.8466 0.0136721 13.7812 0.0410156C13.7144 0.0683596 13.6567 0.107856 13.6066 0.157986C13.5564 0.208116 13.5184 0.265842 13.4911 0.331163C13.4638 0.396484 13.4501 0.464844 13.4501 0.536241V2.93186C12.4217 3.07313 10.9952 3.55469 11.0043 4.8049V5.87891C9.24067 6.34527 7.67144 7.18077 6.30122 8.38542C6.24805 8.43251 6.20551 8.4872 6.17361 8.551C6.14323 8.6148 6.125 8.68316 6.12044 8.75304C6.11589 8.82444 6.125 8.89431 6.14779 8.96115C6.17057 9.028 6.20551 9.08876 6.2526 9.14193C6.2997 9.1951 6.35438 9.23763 6.4197 9.26953C6.48351 9.29991 6.55035 9.31814 6.62174 9.3227C6.69162 9.32726 6.7615 9.31814 6.82834 9.29536C6.89518 9.27105 6.95595 9.23611 7.00911 9.18902C7.61523 8.66037 8.273 8.20768 8.98242 7.82943C8.54036 8.30035 8.14692 8.80773 7.80056 9.35308C7.76259 9.41385 7.73676 9.47765 7.72461 9.54753C7.71246 9.61892 7.71398 9.68728 7.72917 9.75716C7.74436 9.82704 7.77322 9.89084 7.81424 9.94857C7.85525 10.0063 7.90538 10.0549 7.96463 10.0929C8.02539 10.1309 8.09071 10.1567 8.16059 10.1688C8.23047 10.181 8.30035 10.1795 8.36871 10.1643C8.43859 10.1491 8.50239 10.1202 8.56011 10.0792C8.61936 10.0382 8.66645 9.98806 8.70443 9.92882C9.08876 9.28776 9.55816 8.71658 10.1126 8.2168C10.6671 7.71701 11.2839 7.3099 11.9614 6.99544C10.7491 9.03407 10.0853 12.85 10.0276 16.5992H6.76302C6.78581 15.8609 6.8648 15.1272 6.99696 14.401C7.01063 14.3312 7.01063 14.2613 6.99544 14.1914C6.98025 14.1215 6.95291 14.0577 6.91341 13.9985C6.8724 13.9408 6.82227 13.8906 6.76302 13.8526C6.70378 13.8132 6.63845 13.7873 6.56858 13.7752C6.4987 13.7615 6.42882 13.763 6.35894 13.7782C6.28906 13.7919 6.22526 13.8192 6.16602 13.8602C6.10829 13.9013 6.05968 13.9514 6.02018 14.0106C5.9822 14.0699 5.95638 14.1352 5.94423 14.2051C5.79839 14.9965 5.71484 15.7941 5.69054 16.5992H3.42708C3.39822 16.0736 3.7947 15.2472 3.06402 15.0938C2.15104 15.0178 2.41992 16.4928 2.33789 17.1339C2.34701 29.668 19.7164 33.2454 24.6944 21.7201C27.5488 15.3353 23.6949 7.5332 16.9668 5.88043ZM23.786 21.0911C23.0569 21.3783 22.3201 21.6274 21.5788 21.8492C22.0026 20.4881 22.2365 19.0951 22.2806 17.6701H24.5365C24.4787 18.8535 24.2296 19.9944 23.786 21.0911ZM4.18663 21.0911C3.74306 19.9944 3.4924 18.8535 3.4362 17.6701H5.69206C5.73459 19.0951 5.96853 20.4881 6.39236 21.8492C5.65104 21.6274 4.91428 21.3783 4.18663 21.0911ZM6.76302 17.6701H10.0276C10.0488 19.373 10.2038 21.0638 10.4924 22.7424C9.53234 22.6178 8.58138 22.434 7.6441 22.191C7.10482 20.7326 6.81163 19.2257 6.76302 17.6701ZM16.0037 6.98481C16.8392 7.39041 17.5805 7.92513 18.2307 8.58746C18.8809 9.2513 19.4004 10.0033 19.7908 10.8464C19.2454 10.7279 18.7077 10.62 18.1866 10.541C17.8767 10.4939 17.5668 10.4635 17.2569 10.4256C17.0124 9.21636 16.5961 8.06793 16.0037 6.98481ZM16.1374 10.3086C14.7018 10.1962 13.2678 10.1977 11.8322 10.3162C13.122 5.3533 14.8461 5.3457 16.1374 10.3086ZM18.0165 11.5998C18.7624 11.7122 19.5356 11.8763 20.327 12.0707C20.8663 13.5321 21.161 15.0406 21.2081 16.5992H17.9451C17.9223 14.8978 17.7674 13.2101 17.4803 11.533C17.658 11.5573 17.8388 11.571 18.0165 11.5998ZM13.9863 27.7083C13.2891 27.7083 12.4338 26.3609 11.8353 23.9668C12.5508 24.023 13.2678 24.0519 13.9863 24.0519C14.7033 24.0519 15.4204 24.023 16.1359 23.9668C15.5373 26.3609 14.6836 27.7083 13.9863 27.7083ZM11.5953 22.867C11.2808 21.1489 11.1168 19.4171 11.1031 17.6701H16.8681C16.8544 19.4171 16.6903 21.1489 16.3759 22.867C14.7823 23.0128 13.1888 23.0128 11.5953 22.867ZM9.78451 23.7283C10.0944 23.7739 10.4058 23.8164 10.7172 23.8544C10.9618 25.0605 11.378 26.2044 11.9674 27.2845C11.1335 26.8789 10.3921 26.3457 9.74197 25.6834C9.09332 25.0211 8.57378 24.2691 8.18338 23.4275C8.71658 23.5445 9.24978 23.6447 9.78451 23.7283ZM16.0037 27.283C16.5946 26.2029 17.0109 25.0605 17.2539 23.8529C17.5653 23.8164 17.8767 23.7739 18.1882 23.7283C18.7214 23.6447 19.2546 23.5445 19.7878 23.4275C19.3989 24.2691 18.8778 25.0211 18.2292 25.6819C17.579 26.3442 16.8377 26.8774 16.0037 27.283ZM18.0469 22.6649C17.857 22.6938 17.6686 22.7181 17.4787 22.7424C17.7674 21.0638 17.9223 19.373 17.9451 17.6701H21.2081C21.1595 19.2257 20.8663 20.7326 20.3286 22.1925C19.569 22.3809 18.8095 22.5464 18.0469 22.6649ZM22.2806 16.5992C22.2365 15.1758 22.0041 13.7828 21.5818 12.4232C22.3262 12.6465 23.0645 12.8941 23.786 13.1782C24.2296 14.2765 24.4787 15.4158 24.5365 16.5992H22.2806ZM23.107 11.7897C22.4507 11.5603 21.7899 11.3522 21.1215 11.1714C20.6141 9.9273 19.9047 8.81076 18.9933 7.82031C19.8485 8.2806 20.6263 8.84722 21.3236 9.5217C22.0224 10.1947 22.6163 10.9512 23.107 11.7897ZM12.0768 4.8049C12.0753 4.64388 12.1452 4.52235 12.2834 4.44032C12.5401 4.28385 12.8136 4.16536 13.1037 4.08485C13.3924 4.00282 13.6886 3.96332 13.9878 3.96332C14.2886 3.96332 14.5849 4.00434 14.8735 4.08637C15.1621 4.16688 15.4355 4.28689 15.6923 4.44336C16.0128 4.6059 15.8639 5.19227 15.8958 5.648C14.6228 5.43837 13.3498 5.43837 12.0768 5.65104V4.8049ZM11.5938 11.4054C13.1873 11.255 14.7808 11.252 16.3759 11.3963C16.6903 13.1159 16.8544 14.8507 16.8681 16.5992H11.1031C11.1168 14.8537 11.2808 13.122 11.5938 11.4054ZM4.86871 22.4872C5.52496 22.7151 6.18576 22.9201 6.84961 23.0994C7.35851 24.3435 8.06793 25.4586 8.97786 26.4475C8.12413 25.9887 7.34787 25.4236 6.65061 24.7507C5.95182 24.0777 5.35938 23.3227 4.86871 22.4872ZM18.9933 26.4475C19.9032 25.4601 20.6126 24.3435 21.1215 23.0994C21.7854 22.9201 22.4462 22.7166 23.1024 22.4872C22.6133 23.3227 22.0193 24.0777 21.322 24.7507C20.6233 25.4236 19.847 25.9887 18.9933 26.4475Z" fill="#F59E0B"/>
</g>
<mask id="mask1_69_255" style="mask-type:luminance" maskUnits="userSpaceOnUse" x="22" y="3" width="6" height="7">
<path d="M22.3489 3.96333H27.9999V9.79666H22.3489V3.96333Z" fill="white"/>
</mask>
<g mask="url(#mask1_69_255)">
<path d="M27.6292 6.47592C27.1294 6.23134 26.3228 6.08095 26.18 5.64345L25.7471 4.59376C25.7045 4.49501 25.6377 4.41602 25.5481 4.35678C25.4584 4.29753 25.3597 4.26867 25.2518 4.26867C25.144 4.26867 25.0452 4.29753 24.9556 4.35678C24.8645 4.41602 24.7992 4.49501 24.7566 4.59376C24.5105 5.09354 24.3586 5.9017 23.9211 6.04449L22.8729 6.47592C22.7742 6.51845 22.6952 6.58529 22.636 6.67492C22.5767 6.76455 22.5479 6.86329 22.5479 6.97114C22.5479 7.079 22.5767 7.17774 22.636 7.26737C22.6952 7.35851 22.7742 7.42383 22.8729 7.46637C23.3834 7.71702 24.1854 7.86741 24.3252 8.30491L24.7566 9.35005C24.7976 9.45031 24.863 9.5293 24.9526 9.59007C25.0437 9.65083 25.1425 9.68121 25.2518 9.68121C25.3597 9.68121 25.46 9.65083 25.5496 9.59007C25.6392 9.53082 25.7061 9.45031 25.7471 9.35005L26.1785 8.30187C26.2575 8.11199 26.3927 7.9783 26.5826 7.89931L27.6292 7.46637C27.728 7.42383 27.807 7.35851 27.8662 7.26737C27.9255 7.17774 27.9558 7.079 27.9558 6.97114C27.9558 6.86329 27.9255 6.76455 27.8662 6.67492C27.807 6.58529 27.728 6.51845 27.6292 6.47592ZM25.2518 7.75652C25.0726 7.41168 24.8113 7.1504 24.465 6.97266C24.8113 6.79341 25.0726 6.5306 25.2518 6.18577C25.4296 6.5306 25.6909 6.79341 26.0357 6.97114C25.6924 7.1504 25.4296 7.41168 25.2518 7.75652Z" fill="#F59E0B"/>
</g>
<path d="M2.07509 11.814C2.57791 12.0616 3.38607 12.2135 3.52734 12.651L3.95877 13.6962C4.0013 13.7949 4.06662 13.8739 4.15625 13.9332C4.2474 13.9924 4.34614 14.0228 4.45399 14.0228C4.56185 14.0228 4.66059 13.9924 4.75022 13.9347C4.83984 13.8754 4.90668 13.7964 4.94922 13.6962C5.19379 13.1964 5.3457 12.3882 5.78472 12.247L6.83138 11.814C6.93012 11.7715 7.00911 11.7046 7.06836 11.615C7.1276 11.5254 7.15799 11.4266 7.15647 11.3188C7.15647 11.2109 7.1276 11.1122 7.06836 11.0226C7.00911 10.9314 6.93012 10.8661 6.83138 10.8236L5.78624 10.3937C5.34874 10.2524 5.19531 9.44118 4.94922 8.9414C4.90668 8.84114 4.83984 8.76215 4.75022 8.7029C4.66059 8.64518 4.56185 8.6148 4.45399 8.6148C4.34614 8.6148 4.2474 8.64518 4.15777 8.70442C4.06662 8.76367 4.0013 8.84266 3.95877 8.9414C3.71267 9.44118 3.56076 10.2493 3.12326 10.3921L2.07509 10.8236C1.97635 10.8661 1.89735 10.9329 1.83811 11.0226C1.77886 11.1122 1.75 11.2109 1.75 11.3188C1.75 11.4266 1.77886 11.5254 1.83811 11.615C1.89735 11.7046 1.97635 11.7715 2.07509 11.814ZM4.45399 10.5334C4.63173 10.8783 4.89301 11.1411 5.23785 11.3188C4.89301 11.498 4.63173 11.7593 4.45399 12.1042C4.27474 11.7593 4.01345 11.498 3.6671 11.3188C4.01345 11.1411 4.27474 10.8783 4.45399 10.5334Z" fill="#F59E0B"/>
<mask id="mask2_69_255" style="mask-type:luminance" maskUnits="userSpaceOnUse" x="0" y="24" width="6" height="7">
<path d="M0 24.5744H5.62674V30.0189H0V24.5744Z" fill="white"/>
</mask>
<g mask="url(#mask2_69_255)">
<path d="M5.09798 26.8014C4.5982 26.5569 3.79156 26.4065 3.64876 25.9674L3.21582 24.9193C3.17329 24.8205 3.10645 24.7415 3.01682 24.6823C2.92567 24.623 2.82693 24.5927 2.71908 24.5927C2.61274 24.5927 2.514 24.623 2.42285 24.6823C2.33322 24.7415 2.2679 24.8205 2.22537 24.9193C1.97624 25.4251 1.82737 26.2287 1.38987 26.37L0.341688 26.8014C0.242947 26.844 0.163954 26.9108 0.104709 27.0004C0.0454647 27.0901 0.0166016 27.1888 0.0166016 27.2967C0.0166016 27.4045 0.0454647 27.5033 0.104709 27.5929C0.163954 27.6825 0.242947 27.7494 0.341688 27.7919L1.39138 28.2263C1.82737 28.3646 1.97624 29.1697 2.22385 29.674C2.26638 29.7743 2.33322 29.8533 2.42285 29.9125C2.51248 29.9718 2.61274 30.0007 2.71908 30.0007C2.82693 30.0007 2.92567 29.9718 3.01682 29.9125C3.10645 29.8533 3.17329 29.7743 3.21582 29.6756C3.4604 29.1758 3.6123 28.3661 4.0498 28.2248L5.09798 27.7919C5.19672 27.7494 5.27572 27.684 5.33496 27.5929C5.39421 27.5033 5.42459 27.4045 5.42307 27.2967C5.42307 27.1888 5.39421 27.0901 5.33496 27.0004C5.27572 26.9108 5.19672 26.844 5.09798 26.8014ZM2.72059 28.082C2.54134 27.7372 2.28006 27.4759 1.93522 27.2982C2.28158 27.1204 2.54438 26.8592 2.72059 26.5113C2.89833 26.8561 3.15961 27.1189 3.50445 27.2967C3.15961 27.4759 2.89833 27.7372 2.72059 28.082Z" fill="#F59E0B"/>
</g>
</svg>
